<?xml version="1.0" encoding="utf-8"?>
<!-- Generator: Adobe Illustrator 22.1.0, SVG Export Plug-In . SVG Version: 6.00 Build 0)  -->
<svg version="1.1" id="Layer_1" xmlns="http://www.w3.org/2000/svg" xmlns:xlink="http://www.w3.org/1999/xlink" x="0px" y="0px"
	 viewBox="0 0 700 49.3" style="enable-background:new 0 0 700 49.3;" xml:space="preserve">
<style type="text/css">
	.st0{fill:#FFFFFF;}
	.st1{fill:#AD9042;}
</style>
<g>
	<path class="st0" d="M61.7,6c0-3.6-0.3-3.7-1.9-4l-0.6-0.1c-0.2-0.2-0.2-0.8,0.1-1C60.6,1,62.1,1,63.6,1s3.1,0,4.6-0.1
		c0.3,0.1,0.3,0.7,0.1,1L67.6,2c-1.6,0.2-1.9,0.3-1.9,4v7.8c0,4.7,1.4,8.7,6.2,8.7c4.5,0,6.3-3.4,6.3-8.6V9.6c0-2.6,0-5.8-0.7-6.7
		c-0.3-0.5-0.9-0.8-1.7-0.9l-0.7-0.1c-0.3-0.2-0.3-0.9,0.1-1C76.4,1,77.7,1,79,1c1.4,0,2.4,0,3.6-0.1c0.3,0.2,0.3,0.7,0.1,1
		l-0.8,0.2c-0.7,0.1-1.3,0.3-1.5,0.8c-0.5,1-0.5,4-0.5,6.7v4.1c0,3.1-0.5,6-2.3,7.9s-4.4,2.6-6.7,2.6c-3.2,0-5.5-0.7-7.1-2.2
		c-1.5-1.5-2.3-3.9-2.3-7.3V6H61.7z"/>
	<path class="st0" d="M113,17.8c0,1,0,5.2,0.1,6c-0.3,0.4-0.8,0.5-1.2,0.5c-0.5-0.7-1.5-1.9-4-4.7l-8-9.1C97.7,8,96.6,6.7,96,6.2
		c0,0,0,0.3,0,2.2V15c0,2.6,0,5.7,0.6,6.7c0.3,0.5,0.9,0.8,1.7,0.9l0.8,0.1c0.3,0.2,0.3,0.9-0.1,1c-1.3-0.1-2.6-0.1-3.9-0.1
		c-1.4,0-2.4,0-3.6,0.1c-0.3-0.2-0.3-0.8-0.1-1l0.8-0.2c0.7-0.1,1.3-0.2,1.5-0.8c0.4-1.1,0.4-4,0.4-6.7V6.9c0-2.7,0-3.2-1.1-4.2
		c-0.4-0.3-1.3-0.6-1.8-0.7l-0.5-0.1c-0.2-0.2-0.2-0.9,0.1-1C92.1,1.1,94,1,94.9,1c0.7,0,1.5,0,2.4-0.1c0.6,1.5,4.3,5.8,5.5,7.1
		l3.4,3.7c1.4,1.6,4.6,5.2,5,5.4c0.1-0.1,0.1-0.3,0.1-0.8V9.6c0-2.6,0-5.7-0.7-6.7c-0.3-0.5-0.9-0.8-1.7-0.9l-0.8-0.1
		c-0.3-0.2-0.3-0.9,0.1-1c1.3,0.1,2.6,0.1,3.9,0.1c1.5,0,2.4,0,3.6-0.1c0.3,0.2,0.3,0.8,0.1,1L115,2.1c-0.7,0.1-1.2,0.2-1.5,0.8
		C113,4,113,6.9,113,9.6V17.8z"/>
	<path class="st0" d="M131.8,18.7c0,3.6,0.3,3.7,1.9,3.9l0.8,0.1c0.2,0.2,0.2,0.9-0.1,1c-1.5-0.1-3-0.1-4.6-0.1
		c-1.5,0-3.1,0-4.6,0.1c-0.3-0.1-0.3-0.8-0.1-1l0.8-0.1c1.6-0.2,1.9-0.3,1.9-3.9V6c0-3.6-0.3-3.7-1.9-3.9L125.1,2
		c-0.2-0.2-0.2-0.9,0.1-1c1.5,0.1,3,0.1,4.6,0.1c1.5,0,3,0,4.6-0.1c0.3,0.1,0.3,0.8,0.1,1l-0.8,0c-1.6,0.2-1.9,0.3-1.9,3.9V18.7z"/>
	<path class="st0" d="M158.1,15.1c-1.4,3.1-3,7.1-3.6,8.9c-0.1,0.1-0.3,0.2-0.6,0.2c-0.2,0-0.5-0.1-0.7-0.2c-0.4-1.4-1-3-1.6-4.5
		l-6-14.4c-1-2.3-1.3-2.8-2.6-3l-0.8-0.2c-0.2-0.2-0.2-0.9,0.1-1c1.3,0.1,2.8,0.1,4.1,0.1c1.5,0,2.7,0,4.5-0.1c0.3,0.2,0.3,0.8,0,1
		L150,2.1c-0.8,0.2-1,0.3-1,0.6s0.3,1.1,1.7,4.6l2.5,6.1c0.6,1.5,1.5,3.6,1.9,4.4c1.8-4.3,3.9-9,5.7-13.7c0.5-1.4,0.4-1.6-0.6-1.9
		l-1-0.2c-0.2-0.3-0.2-0.8,0.1-1c1.5,0,2.7,0,3.8,0c1.2,0,2.4,0,3.3-0.1c0.3,0.2,0.2,0.7,0.1,1l-0.9,0.2c-0.8,0.2-1.5,0.4-2.1,1.4
		c-1,1.6-1.9,3.9-3.5,7.4L158.1,15.1z"/>
	<path class="st0" d="M175.9,6c0-3.6-0.3-3.8-1.9-4l-0.5-0.1c-0.2-0.2-0.2-0.9,0.1-1C174.9,1,176.5,1,178,1h6.5c2.2,0,4.2,0,4.6-0.1
		c0.1,0.6,0.3,3.3,0.5,4.8c-0.1,0.3-0.8,0.3-1.1,0.1c-0.5-2-1.1-2.8-2.2-3.1c-0.8-0.2-1.8-0.3-2.7-0.3h-2.3c-1.5,0-1.5,0.1-1.5,2
		v5.8c0,0.9,0,0.9,0.8,0.9h1.6c3,0,3.5,0,3.8-1.5l0.2-1.2c0.3-0.2,0.9-0.2,1.1,0c0,0.9-0.1,2.2-0.1,3.4c0,1.3,0.1,2.5,0.1,3.6
		c-0.2,0.2-0.8,0.2-1.1,0L186,14c-0.2-1.4-0.8-1.5-3.8-1.5h-1.6c-0.8,0-0.8,0.1-0.8,0.9v4.4c0,1.7,0.1,3,0.6,3.6
		c0.4,0.5,1,0.7,3.9,0.8c4.4,0,5.1-0.9,6.3-3.7c0.3-0.2,0.9-0.1,1.1,0.2c-0.2,1.4-1,4-1.4,5c-1.5-0.1-4.5-0.1-8.5-0.1h-3.9
		c-1.5,0-3.6,0-5.1,0.1c-0.3-0.1-0.3-0.8-0.1-1l1.3-0.1c1.6-0.2,1.9-0.3,1.9-3.9L175.9,6L175.9,6z"/>
	<path class="st0" d="M202.6,6.2c0-3.3,0-3.7-1.6-3.9l-0.9-0.1c-0.2-0.2-0.2-0.8,0-1c2.2-0.2,5.1-0.3,7.9-0.3c2.7,0,5,0.3,6.5,1.2
		c1.7,0.9,3,2.5,3,5c0,3.2-2.4,4.7-4.1,5.4c-0.2,0.1-0.1,0.4,0,0.6c2.7,4.6,4.5,7.5,6.1,8.9c1,0.8,2,1,2.4,1.1
		c0.2,0.1,0.2,0.5,0.1,0.7c-0.4,0.1-1.1,0.2-2.3,0.2c-3.3,0-5.1-1.3-7.2-4.5c-0.9-1.4-1.9-3.3-2.7-4.7c-0.6-1-1-1.2-2.1-1.2
		c-1,0-1.1,0-1.1,0.8v4.4c0,3.6,0.3,3.7,1.9,3.9l0.8,0.1c0.2,0.2,0.2,0.9-0.1,1c-1.5-0.1-3-0.1-4.6-0.1c-1.5,0-3,0-4.6,0.1
		c-0.3-0.1-0.4-0.8-0.1-1l0.8-0.1c1.6-0.2,1.9-0.3,1.9-3.9L202.6,6.2L202.6,6.2z M206.6,11.1c0,1.1,0,1.2,1.6,1.2
		c3.4,0,4.9-1.6,4.9-4.9c0-2.7-1.7-5.1-4.7-5.1c-1.8,0-1.8,0.1-1.8,1.7V11.1z"/>
	<path class="st0" d="M230.1,22.7c-0.6-0.7-1.1-3.1-1-5.2c0.2-0.3,0.8-0.4,1.1-0.1c0.6,1.7,2.5,5.4,5.8,5.4c2.6,0,4.1-1.6,4.1-3.7
		c0-2-0.9-3.5-3.5-5l-1.5-0.8c-2.6-1.4-4.8-3.5-4.8-6.6c0-3.4,2.5-6.3,7.5-6.3c1.8,0,3.1,0.4,4.7,0.7c0.4,0.8,0.7,3,0.7,4.6
		C243,6,242.4,6,242.1,5.8c-0.5-1.8-1.7-4.1-4.6-4.1c-2.7,0-3.9,1.8-3.9,3.6c0,1.4,1,3,3.3,4.2l2.1,1.1c2.2,1.2,4.7,3.3,4.7,6.7
		c0,3.9-3,6.7-7.9,6.7C232.6,24.2,230.8,23.2,230.1,22.7z"/>
	<path class="st0" d="M259.3,18.7c0,3.6,0.3,3.7,1.9,3.9l0.8,0.1c0.2,0.2,0.2,0.9-0.1,1c-1.5-0.1-3-0.1-4.6-0.1
		c-1.5,0-3.1,0-4.6,0.1c-0.3-0.1-0.3-0.8-0.1-1l0.8-0.1c1.6-0.2,1.9-0.3,1.9-3.9V6c0-3.6-0.3-3.7-1.9-3.9L252.6,2
		c-0.2-0.2-0.2-0.9,0.1-1c1.5,0.1,3,0.1,4.6,0.1c1.5,0,3,0,4.6-0.1c0.3,0.1,0.3,0.8,0.1,1l-0.8,0c-1.6,0.2-1.9,0.3-1.9,3.9
		L259.3,18.7L259.3,18.7z"/>
	<path class="st0" d="M280,3.9c0-1.4,0-1.5-0.9-1.5h-1.9c-3.2,0-4.1,0.4-5.3,3.2c-0.2,0.2-1,0.1-1.1-0.2c0.6-1.8,1.1-4,1.3-5.2
		c0.1-0.1,0.2-0.1,0.4-0.1c0.1,0,0.3,0,0.3,0.1c0.2,0.9,0.7,0.9,3,0.9h14c1.7,0,2.2-0.1,2.6-0.9c0.1-0.1,0.3-0.1,0.4-0.1
		c0.2,0,0.4,0.1,0.4,0.2c-0.3,1.4-0.6,4.4-0.5,5.4c-0.2,0.3-0.8,0.3-1.1,0.1c-0.4-2.7-1.1-3.3-4.8-3.3h-2c-0.9,0-0.9,0.1-0.9,1.5
		v14.8c0,3.6,0.3,3.7,1.9,3.9l1.2,0.1c0.2,0.2,0.2,0.9-0.1,1c-2-0.1-3.5-0.1-5-0.1s-3.1,0-5.3,0.1c-0.3-0.1-0.3-0.8-0.1-1l1.4-0.2
		c1.6-0.2,1.9-0.2,1.9-3.9V3.9H280z"/>
	<path class="st0" d="M309.1,16.7c0-1.9-0.2-2.4-1.1-4.2l-4.1-8.1c-0.8-1.5-1-1.8-2.6-2.2L300.4,2c-0.2-0.2-0.1-0.9,0.1-1
		c1.5,0.1,2.9,0.1,4.3,0.1c1.5,0,3.6,0,4.4-0.1c0.3,0.1,0.3,0.8,0.1,1l-1,0.2c-0.5,0.1-0.7,0.2-0.7,0.4c0,0.3,0.1,0.7,0.6,1.8
		c1.3,2.9,2.6,5.7,4,8.2c1.4-2.6,2.7-5,4-7.6c0.6-1.2,0.9-1.9,0.9-2.3c0-0.3-0.3-0.4-0.8-0.5l-1-0.2c-0.2-0.2-0.2-0.8,0.1-1
		c1.5,0,2.6,0,3.6,0c1.1,0,2.2,0,3.3-0.1c0.3,0.2,0.3,0.7,0.1,1l-1,0.2c-1.5,0.3-2,0.9-3.7,3.9c-1.2,2-2.2,3.8-3.3,5.8
		c-1,1.8-1.3,2.5-1.3,4.8v2.1c0,3.6,0.3,3.7,2,3.9l1.3,0.1c0.2,0.2,0.2,0.9-0.1,1c-2.1-0.1-3.7-0.1-5.2-0.1c-1.6,0-3.1,0-5,0.1
		c-0.3-0.1-0.3-0.8-0.1-1l1.1-0.1c1.6-0.2,1.9-0.3,1.9-3.9v-2H309.1z"/>
	<path class="st0" d="M368.9,12.4c0,6.7-5.1,11.8-12.1,11.8c-7.7,0-12.2-5.4-12.2-11.5c0-7,5.1-12.2,12.3-12.2
		C364.8,0.5,368.9,6.2,368.9,12.4z M349.3,11.6c0,4.7,2,11.2,7.9,11.2c3.9,0,7.1-2.9,7.1-9.8c0-5.2-2.3-11.2-7.8-11.2
		C353,1.8,349.3,4.4,349.3,11.6z"/>
	<path class="st0" d="M388.3,1c2.2,0,4.1,0,4.8-0.1c0,0.8,0,3.3,0.1,4.9c-0.1,0.3-0.8,0.3-1.1,0.1c-0.3-2-0.9-3-2.2-3.3
		c-0.9-0.2-1.8-0.3-2.9-0.3h-1.7c-1.4,0-1.4,0.1-1.4,2v6.1c0,0.9,0,0.9,0.8,0.9h2c3,0,3.5-0.1,3.8-1.5l0.3-1.2c0.2-0.2,0.9-0.2,1,0
		c0,0.9-0.1,2.2-0.1,3.4c0,1.3,0.1,2.5,0.1,3.6c-0.2,0.3-0.8,0.3-1,0l-0.3-1.3c-0.3-1.4-0.9-1.5-3.8-1.5h-2c-0.8,0-0.8,0.1-0.8,0.9
		v4.8c0,3.6,0.3,3.7,1.9,3.9l1.4,0.2c0.2,0.2,0.2,0.9-0.1,1c-2.2-0.1-3.7-0.1-5.2-0.1s-3,0-4.6,0.1c-0.3-0.1-0.3-0.8-0.1-1l0.8-0.1
		c1.6-0.2,1.9-0.3,1.9-3.9V6c0-3.6-0.3-3.7-1.9-4l-0.4-0.1c-0.2-0.2-0.2-0.9,0.1-1c1.2,0.1,2.7,0.1,4.2,0.1H388.3z"/>
	<path class="st0" d="M439.1,17.8c0,1,0,5.2,0.1,6c-0.3,0.4-0.8,0.5-1.2,0.5c-0.5-0.7-1.5-1.9-4-4.7l-8-9.1
		c-2.2-2.5-3.3-3.8-3.9-4.3c-0.1,0-0.1,0.4-0.1,2.2V15c0,2.6,0,5.7,0.6,6.7c0.3,0.5,0.9,0.8,1.7,0.9l0.8,0.1c0.3,0.2,0.3,0.9-0.1,1
		c-1.3-0.1-2.6-0.1-3.9-0.1c-1.4,0-2.4,0-3.6,0.1c-0.3-0.2-0.3-0.8-0.1-1l0.8-0.2c0.7-0.1,1.3-0.2,1.5-0.8c0.4-1.1,0.4-4,0.4-6.7
		V6.9c0-2.7,0-3.2-1.1-4.2c-0.4-0.3-1.3-0.6-1.8-0.7l-0.5-0.1c-0.2-0.2-0.2-0.9,0.1-1c1.3,0.1,3.2,0.1,4,0.1c0.7,0,1.5,0,2.4-0.1
		c0.6,1.5,4.3,5.8,5.5,7.1l3.4,3.7c1.4,1.6,4.6,5.2,5,5.4c0.1-0.1,0.1-0.3,0.1-0.8V9.6c0-2.6,0-5.7-0.7-6.7
		c-0.3-0.5-0.9-0.8-1.7-0.9L434,1.9c-0.3-0.2-0.3-0.9,0.1-1C435.4,1,436.7,1,438,1c1.5,0,2.4,0,3.6-0.1c0.3,0.2,0.3,0.8,0.1,1
		L441,2.1c-0.7,0.1-1.2,0.2-1.5,0.8C439,4,439,6.9,439,9.6v8.2H439.1z"/>
	<path class="st0" d="M473.4,12.4c0,6.7-5.1,11.8-12.1,11.8c-7.7,0-12.2-5.4-12.2-11.5c0-7,5.1-12.2,12.3-12.2
		C469.3,0.5,473.4,6.2,473.4,12.4z M453.8,11.6c0,4.7,2,11.2,7.9,11.2c3.9,0,7.1-2.9,7.1-9.8c0-5.2-2.3-11.2-7.8-11.2
		C457.5,1.8,453.8,4.4,453.8,11.6z"/>
	<path class="st0" d="M489.3,3.9c0-1.4,0-1.5-0.9-1.5h-1.9c-3.2,0-4.1,0.4-5.3,3.2c-0.2,0.2-1,0.1-1.1-0.2c0.6-1.8,1.1-4,1.3-5.2
		c0.1-0.1,0.2-0.1,0.4-0.1c0.1,0,0.3,0,0.3,0.1c0.2,0.9,0.7,0.9,3,0.9h14c1.7,0,2.2-0.1,2.6-0.9c0.1-0.1,0.3-0.1,0.4-0.1
		c0.2,0,0.4,0.1,0.4,0.2c-0.3,1.4-0.6,4.4-0.5,5.4c-0.2,0.3-0.8,0.3-1.1,0.1c-0.4-2.7-1.1-3.3-4.8-3.3h-2c-0.9,0-0.9,0.1-0.9,1.5
		v14.8c0,3.6,0.3,3.7,1.9,3.9l1.2,0.1c0.2,0.2,0.2,0.9-0.1,1c-2-0.1-3.5-0.1-5-0.1s-3.1,0-5.3,0.1c-0.3-0.1-0.3-0.8-0.1-1l1.4-0.2
		c1.6-0.2,1.9-0.2,1.9-3.9V3.9H489.3z"/>
	<path class="st0" d="M513.1,6.2c0-3.3,0-3.7-1.6-3.9l-0.9-0.1c-0.2-0.2-0.2-0.8,0-1c2.2-0.2,5.1-0.3,7.9-0.3c2.7,0,5,0.3,6.5,1.2
		c1.7,0.9,3,2.5,3,5c0,3.2-2.4,4.7-4.1,5.4c-0.2,0.1-0.1,0.4,0,0.6c2.7,4.6,4.5,7.5,6.1,8.9c1,0.8,2,1,2.4,1.1
		c0.2,0.1,0.2,0.5,0.1,0.7c-0.4,0.1-1.1,0.2-2.3,0.2c-3.3,0-5.1-1.3-7.2-4.5c-0.9-1.4-1.9-3.3-2.7-4.7c-0.6-1-1-1.2-2.1-1.2
		c-1,0-1.1,0-1.1,0.8v4.4c0,3.6,0.3,3.7,1.9,3.9l0.8,0.1c0.2,0.2,0.2,0.9-0.1,1c-1.5-0.1-3-0.1-4.6-0.1c-1.5,0-3,0-4.6,0.1
		c-0.3-0.1-0.4-0.8-0.1-1l0.8-0.1c1.6-0.2,1.9-0.3,1.9-3.9L513.1,6.2L513.1,6.2z M517.1,11.1c0,1.1,0,1.2,1.6,1.2
		c3.4,0,4.9-1.6,4.9-4.9c0-2.7-1.7-5.1-4.7-5.1c-1.8,0-1.8,0.1-1.8,1.7V11.1z"/>
	<path class="st0" d="M543.1,6c0-3.6-0.3-3.8-1.9-4l-0.5-0.1c-0.2-0.2-0.2-0.9,0.1-1C542,1,543.7,1,545.2,1h6.5c2.2,0,4.2,0,4.6-0.1
		c0.1,0.6,0.3,3.3,0.5,4.8C556.7,6,556,6,555.7,5.8c-0.5-2-1.1-2.8-2.2-3.1c-0.8-0.2-1.8-0.3-2.7-0.3h-2.3c-1.5,0-1.5,0.1-1.5,2v5.8
		c0,0.9,0,0.9,0.8,0.9h1.6c3,0,3.5,0,3.8-1.5l0.2-1.2c0.3-0.2,0.9-0.2,1.1,0c0,0.9-0.1,2.2-0.1,3.4c0,1.3,0.1,2.5,0.1,3.6
		c-0.2,0.2-0.8,0.2-1.1,0l-0.2-1.4c-0.2-1.4-0.8-1.5-3.8-1.5h-1.6c-0.8,0-0.8,0.1-0.8,0.9v4.4c0,1.7,0.1,3,0.6,3.6
		c0.4,0.5,1,0.7,3.9,0.8c4.4,0,5.1-0.9,6.3-3.7c0.3-0.2,0.9-0.1,1.1,0.2c-0.2,1.4-1,4-1.4,5c-1.5-0.1-4.5-0.1-8.5-0.1h-3.9
		c-1.5,0-3.6,0-5.1,0.1c-0.3-0.1-0.3-0.8-0.1-1l1.3-0.1c1.6-0.2,1.9-0.3,1.9-3.9V6z"/>
	<path class="st0" d="M585.1,6.2c0-3.3,0-3.8-1.6-3.9l-0.7-0.1c-0.2-0.2-0.2-0.8,0-1c2.5-0.2,5.2-0.3,8.6-0.3c3.3,0,5.6,0.3,8.1,1.2
		c4.1,1.5,7,5.1,7,10.2c0,3.8-1.9,7.7-6.1,9.9c-2.4,1.2-5.4,1.6-8.5,1.6c-2.1,0-3.7-0.2-5-0.2s-2.8,0-4.4,0.1
		c-0.3-0.1-0.3-0.8-0.1-1l0.8-0.1c1.6-0.2,1.9-0.3,1.9-3.9V6.2z M589.1,17.4c0,3.3,0.2,5.1,3.9,5.1c6.1,0,8.8-4.3,8.8-10.1
		c0-6.8-3.9-10.1-9.7-10.1c-1.4,0-2.5,0.3-2.8,0.5C589.1,3,589,3.7,589,5.3L589.1,17.4L589.1,17.4z"/>
	<path class="st0" d="M620.5,15.2c-0.9,0-0.9,0-1.2,0.9l-1.4,4.1c-0.7,2-0.5,2.1,0.7,2.3l1,0.2c0.2,0.2,0.2,0.9-0.1,1
		c-1.1-0.1-2.2-0.1-3.6-0.1c-1.1,0-2.2,0-3.4,0.1c-0.2-0.2-0.3-0.7,0-1l1-0.2c1-0.2,1.4-0.4,1.9-1.6c0.4-0.9,1-2.3,1.7-4.2l4.7-12.2
		c0.4-1.1,0.8-1.9,0.7-2.5c1.2-0.2,2.3-1.6,2.4-1.6c0.3,0,0.4,0.1,0.6,0.3c0.5,1.5,1,3.2,1.5,4.7l4.9,14.4c0.8,2.3,1,2.5,2.7,2.8
		l0.5,0.1c0.3,0.2,0.3,0.8,0,1c-1.4-0.1-2.7-0.1-4.5-0.1c-1.5,0-3,0.1-4.2,0.1c-0.3-0.2-0.3-0.8-0.1-1l0.8-0.1
		c1.2-0.2,1.4-0.4,0.9-1.8l-1.6-4.7c-0.3-0.9-0.4-0.9-1.4-0.9C625,15.2,620.5,15.2,620.5,15.2z M624.6,13.7c1,0,1.1-0.1,0.8-0.9
		L624,8.7c-0.6-1.8-0.8-2.5-1-2.7l0,0c-0.1,0.2-0.4,1.1-1,2.7l-1.4,4c-0.3,1-0.3,1,0.5,1H624.6z"/>
	<path class="st0" d="M671.7,22.7c0.3,0.1,0.3,0.9-0.1,1c-1.5-0.1-2.8-0.1-4.2-0.1c-1.6,0-3.1,0-4.6,0.1c-0.3-0.1-0.4-0.8-0.1-1
		l0.9-0.2c1.4-0.2,1.5-0.5,1.5-2.8v-14H665c-0.9,1.9-1.4,2.9-2.1,4.3l-2.9,6c-1.2,2.4-2.9,6.2-3.5,7.8c-0.1,0.1-0.7,0.1-0.9,0
		c-0.6-1.8-2.1-5.2-2.8-6.9l-3-6.6c-0.7-1.4-1.6-3.6-2-4.6h-0.1c-0.1,1.7-0.1,4.4-0.2,5.8c-0.1,2.1-0.1,5.1-0.1,7.9
		c0,2.3,0,2.8,1.5,3l1.1,0.2c0.2,0.2,0.2,0.9,0,1c-1.3-0.1-2.3-0.1-3.6-0.1c-1.1,0-2.3,0-3.7,0.1c-0.3-0.2-0.3-0.8-0.1-1l0.6-0.1
		c1.6-0.2,1.9-0.7,2.1-2.8c0.2-2.2,0.3-4.4,0.5-7.9c0.1-2.3,0.3-5.2,0.3-7.3c0-1.6-0.5-2.3-1.8-2.5l-1.2-0.2c-0.2-0.2-0.2-0.9,0.1-1
		c1,0.1,2,0.1,3.2,0.1s2.4,0,3.7-0.1c0.1,2.1,1,3.8,1.9,5.7l3.8,7.9c0.3,0.6,1.2,2.3,1.6,3.1c0.5-1,1-2,1.8-3.6l3.2-6.6
		c1.1-2.3,2.2-4.3,2.8-6.5c0.9,0.1,2.1,0.1,2.8,0.1c1.4,0,2.6,0,3.6-0.1c0.4,0.1,0.4,0.8,0.1,1L670.6,2c-1.5,0.2-1.8,0.8-1.8,2.6
		c0,5.1,0.1,10.1,0.3,15.2c0.1,2.3,0.5,2.5,1.6,2.7L671.7,22.7z"/>
	<path class="st0" d="M684.2,6c0-3.6-0.3-3.8-1.9-4l-0.5-0.1c-0.2-0.2-0.2-0.9,0.1-1c1.3,0.1,2.9,0.1,4.4,0.1h6.5
		c2.2,0,4.2,0,4.6-0.1c0.1,0.6,0.3,3.3,0.5,4.8c-0.1,0.3-0.8,0.3-1.1,0.1c-0.5-2-1.1-2.8-2.2-3.1c-0.8-0.2-1.8-0.3-2.7-0.3h-2.3
		c-1.5,0-1.5,0.1-1.5,2v5.8c0,0.9,0,0.9,0.8,0.9h1.6c3,0,3.5,0,3.8-1.5l0.2-1.2c0.3-0.2,0.9-0.2,1.1,0c0,0.9-0.1,2.2-0.1,3.4
		c0,1.3,0.1,2.5,0.1,3.6c-0.2,0.2-0.8,0.2-1.1,0l-0.2-1.4c-0.2-1.4-0.8-1.5-3.8-1.5H689c-0.8,0-0.8,0.1-0.8,0.9v4.4
		c0,1.7,0.1,3,0.6,3.6c0.4,0.5,1,0.7,3.9,0.8c4.4,0,5.1-0.9,6.3-3.7c0.3-0.2,0.9-0.1,1.1,0.2c-0.2,1.4-1,4-1.4,5
		c-1.5-0.1-4.5-0.1-8.5-0.1h-3.9c-1.5,0-3.6,0-5.1,0.1c-0.3-0.1-0.3-0.8-0.1-1l1.3-0.1c1.6-0.2,1.9-0.3,1.9-3.9L684.2,6L684.2,6z"/>
</g>
<g>
	<path class="st1" d="M19.8,19.1L8.1,18.4v13.4l11.6,1.1l11.6-1.1V18.4L19.8,19.1z M18.9,30.7L10,30v-9.6l8.9,0.6V30.7z M29.6,29.9
		l-8.9,0.7v-9.7l8.9-0.6V29.9z"/>
	<path class="st1" d="M19.8,0H0v18c0,17.1,10.9,26.3,19.8,31.3c8.9-5,19.8-14.2,19.8-31.3V0H19.8z M19.8,46.1
		c-1-0.6-1.9-1.1-2.9-1.8c0.8-0.4,1.5-0.9,2.9-0.9s2.1,0.5,2.9,0.9C21.7,45,20.7,45.5,19.8,46.1 M26.6,41.2
		c-0.5,0.4-0.7,0.6-1.2,0.7c-0.2,0-0.7,0.1-0.7,0.1c-2,0-2.5-1.2-4.9-1.2c-2.5,0-2.9,1.2-4.9,1.2c0,0-0.5,0-0.7-0.1
		c-0.5-0.1-0.7-0.2-1.2-0.7c-1-0.9-1.9-1.8-2.8-2.8c1.8,0,2.3,1.1,4.7,1.1c2,0,2.5-1.2,4.9-1.2c2.5,0,2.9,1.2,4.9,1.2
		c2.4,0,2.8-1.1,4.7-1.1C28.5,39.4,27.6,40.3,26.6,41.2 M36.8,18.2c0,7.3-2.2,13-5.4,17.6l0,0c0,0-0.6-0.2-1.6-0.2
		c-2.1,0-2.7,1.2-5.1,1.2c-1.5,0-2.1-0.7-3.3-1v-2l-1.6,0.1l-1.6-0.1v2c-1.2,0.3-1.8,1-3.3,1c-2.4,0-3.1-1.2-5.1-1.2
		c-1,0-1.6,0.2-1.6,0.2l0,0C5,31.3,2.8,25.5,2.8,18.3V2.8h17.1H37L36.8,18.2z"/>
	<polygon class="st1" points="21.3,14.8 28.1,14.8 30.4,15.2 30.4,11.6 28.1,12 21.3,12 21.3,12 21.3,6.8 21.7,4.4 17.8,4.4 
		18.2,6.8 18.2,12 11.4,12 9.1,11.6 9.1,15.2 11.4,14.8 18.2,14.8 18.2,17.9 19.8,18.2 21.3,17.9 	"/>
	<polygon class="st1" points="17.7,24.8 11,24.3 11,22.4 17.7,22.9 	"/>
	<polygon class="st1" points="17.7,28.2 11,27.7 11,25.8 17.7,26.3 	"/>
	<polygon class="st1" points="21.8,24.8 28.5,24.3 28.5,22.4 21.8,22.9 	"/>
	<polygon class="st1" points="21.8,28.2 28.5,27.7 28.5,25.8 21.8,26.3 	"/>
	<circle class="st1" cx="7.5" cy="7.7" r="1.9"/>
</g>
</svg>
